<svg width="30" height="36" viewBox="0 0 30 36" fill="none" xmlns="http://www.w3.org/2000/svg">
<g filter="url(#filter0_d_63_237)">
<path d="M15 0C12.0837 0.0033903 9.28779 1.1465 7.22564 3.17859C5.16348 5.21067 4.00345 7.96579 4.00001 10.8396C3.99652 13.1881 4.77499 15.4728 6.21601 17.3433C6.21601 17.3433 6.51601 17.7326 6.56501 17.7887L15 27.5917L23.439 17.7838C23.483 17.7316 23.784 17.3433 23.784 17.3433L23.785 17.3404C25.2253 15.4707 26.0034 13.187 26 10.8396C25.9966 7.96579 24.8365 5.21067 22.7744 3.17859C20.7122 1.1465 17.9163 0.0033903 15 0ZM15 14.7813C14.2089 14.7813 13.4355 14.5501 12.7777 14.117C12.1199 13.6838 11.6072 13.0682 11.3045 12.348C11.0017 11.6277 10.9225 10.8352 11.0769 10.0706C11.2312 9.30599 11.6122 8.60366 12.1716 8.0524C12.731 7.50115 13.4437 7.12574 14.2197 6.97365C14.9956 6.82156 15.7998 6.89962 16.5307 7.19796C17.2616 7.49629 17.8864 8.00151 18.3259 8.64971C18.7654 9.29792 19 10.06 19 10.8396C18.9987 11.8846 18.5768 12.8864 17.827 13.6253C17.0771 14.3642 16.0605 14.7799 15 14.7813Z" fill="black"/>
</g>
<defs>
<filter id="filter0_d_63_237" x="0" y="0" width="30" height="35.5917" filterUnits="userSpaceOnUse" color-interpolation-filters="sRGB">
<feFlood flood-opacity="0" result="BackgroundImageFix"/>
<feColorMatrix in="SourceAlpha" type="matrix" values="0 0 0 0 0 0 0 0 0 0 0 0 0 0 0 0 0 0 127 0" result="hardAlpha"/>
<feOffset dy="4"/>
<feGaussianBlur stdDeviation="2"/>
<feComposite in2="hardAlpha" operator="out"/>
<feColorMatrix type="matrix" values="0 0 0 0 0 0 0 0 0 0 0 0 0 0 0 0 0 0 0.25 0"/>
<feBlend mode="normal" in2="BackgroundImageFix" result="effect1_dropShadow_63_237"/>
<feBlend mode="normal" in="SourceGraphic" in2="effect1_dropShadow_63_237" result="shape"/>
</filter>
</defs>
</svg>
